<svg xmlns="http://www.w3.org/2000/svg" xmlns:xlink="http://www.w3.org/1999/xlink" viewBox="0 0 441.804 310.989">
  <defs>
    <style>
      .cls-1 {
        fill: #1a1a1a;
        font-size: 12px;
        font-family: Quicksand-Regular, Quicksand;
      }

      .cls-2 {
        fill: #24292e;
      }

      .cls-3 {
        fill: #ededed;
        stroke: #a2a2a2;
      }

      .cls-4 {
        fill: #747474;
        opacity: 0.15;
      }

      .cls-5 {
        fill: #444d56;
      }

      .cls-6 {
        fill: #2f363c;
      }

      .cls-7 {
        fill: #edeeef;
      }

      .cls-8 {
        fill: #404a51;
      }

      .cls-9 {
        fill: #8f979f;
        opacity: 0.4;
      }

      .cls-10 {
        fill: #f8f8f8;
      }

      .cls-11 {
        fill: #ebebeb;
      }

      .cls-12 {
        fill: #b5b5b5;
      }

      .cls-13 {
        fill: #fff;
      }

      .cls-14, .cls-15 {
        fill: none;
      }

      .cls-14 {
        stroke: #c1c1c1;
      }

      .cls-15 {
        stroke: #b7b7b7;
      }

      .cls-16 {
        fill: #d92400;
      }

      .cls-17 {
        fill: #de9e25;
      }

      .cls-18 {
        fill: #76912a;
      }

      .cls-19 {
        filter: url(#Hexagon-9);
      }

      .cls-20 {
        filter: url(#Hexagon-8);
      }

      .cls-21 {
        filter: url(#Hexagon-7);
      }

      .cls-22 {
        filter: url(#Hexagon-6);
      }

      .cls-23 {
        filter: url(#Hexagon-5);
      }

      .cls-24 {
        filter: url(#Hexagon-4);
      }

      .cls-25 {
        filter: url(#Hexagon-3);
      }

      .cls-26 {
        filter: url(#Hexagon-2);
      }

      .cls-27 {
        filter: url(#Hexagon);
      }

      .cls-28 {
        filter: url(#Path_106);
      }

      .cls-29 {
        filter: url(#Path_105);
      }

      .cls-30 {
        filter: url(#Path_104);
      }
    </style>
    <filter id="Path_104" x="152.732" y="89.294" width="179.336" height="171.515" filterUnits="userSpaceOnUse">
      <feOffset dy="3" input="SourceAlpha"/>
      <feGaussianBlur stdDeviation="3" result="blur"/>
      <feFlood flood-opacity="0.161"/>
      <feComposite operator="in" in2="blur"/>
      <feComposite in="SourceGraphic"/>
    </filter>
    <filter id="Path_105" x="158.433" y="215.422" width="238.163" height="95.567" filterUnits="userSpaceOnUse">
      <feOffset dy="6" input="SourceAlpha"/>
      <feGaussianBlur stdDeviation="3" result="blur-2"/>
      <feFlood flood-opacity="0.161"/>
      <feComposite operator="in" in2="blur-2"/>
      <feComposite in="SourceGraphic"/>
    </filter>
    <filter id="Path_106" x="157.997" y="196.141" width="239.385" height="107.539" filterUnits="userSpaceOnUse">
      <feOffset dy="3" input="SourceAlpha"/>
      <feGaussianBlur stdDeviation="3" result="blur-3"/>
      <feFlood flood-opacity="0.161"/>
      <feComposite operator="in" in2="blur-3"/>
      <feComposite in="SourceGraphic"/>
    </filter>
    <filter id="Hexagon" x="52.443" y="152.146" width="83.298" height="93.096" filterUnits="userSpaceOnUse">
      <feOffset dy="2" input="SourceAlpha"/>
      <feGaussianBlur stdDeviation="1" result="blur-4"/>
      <feFlood flood-opacity="0.161"/>
      <feComposite operator="in" in2="blur-4"/>
      <feComposite in="SourceGraphic"/>
    </filter>
    <filter id="Hexagon-2" x="77.27" y="53.22" width="73.147" height="81.775" filterUnits="userSpaceOnUse">
      <feOffset dy="2" input="SourceAlpha"/>
      <feGaussianBlur stdDeviation="1" result="blur-5"/>
      <feFlood flood-opacity="0.161"/>
      <feComposite operator="in" in2="blur-5"/>
      <feComposite in="SourceGraphic"/>
    </filter>
    <filter id="Hexagon-3" x="164.578" y="0" width="90.301" height="97.203" filterUnits="userSpaceOnUse">
      <feOffset dy="2" input="SourceAlpha"/>
      <feGaussianBlur stdDeviation="1" result="blur-6"/>
      <feFlood flood-opacity="0.161"/>
      <feComposite operator="in" in2="blur-6"/>
      <feComposite in="SourceGraphic"/>
    </filter>
    <filter id="Hexagon-4" x="256.634" y="41.231" width="58.628" height="60.648" filterUnits="userSpaceOnUse">
      <feOffset dy="2" input="SourceAlpha"/>
      <feGaussianBlur stdDeviation="1" result="blur-7"/>
      <feFlood flood-opacity="0.161"/>
      <feComposite operator="in" in2="blur-7"/>
      <feComposite in="SourceGraphic"/>
    </filter>
    <filter id="Hexagon-5" x="360.19" y="161.616" width="81.613" height="73.361" filterUnits="userSpaceOnUse">
      <feOffset dy="2" input="SourceAlpha"/>
      <feGaussianBlur stdDeviation="1" result="blur-8"/>
      <feFlood flood-opacity="0.161"/>
      <feComposite operator="in" in2="blur-8"/>
      <feComposite in="SourceGraphic"/>
    </filter>
    <filter id="Hexagon-6" x="102.634" y="242.231" width="58.628" height="60.648" filterUnits="userSpaceOnUse">
      <feOffset dy="2" input="SourceAlpha"/>
      <feGaussianBlur stdDeviation="1" result="blur-9"/>
      <feFlood flood-opacity="0.161"/>
      <feComposite operator="in" in2="blur-9"/>
      <feComposite in="SourceGraphic"/>
    </filter>
    <filter id="Hexagon-7" x="0" y="115.204" width="61.322" height="63.643" filterUnits="userSpaceOnUse">
      <feOffset dy="2" input="SourceAlpha"/>
      <feGaussianBlur stdDeviation="1" result="blur-10"/>
      <feFlood flood-opacity="0.161"/>
      <feComposite operator="in" in2="blur-10"/>
      <feComposite in="SourceGraphic"/>
    </filter>
    <filter id="Hexagon-8" x="323.19" y="11.616" width="81.613" height="73.361" filterUnits="userSpaceOnUse">
      <feOffset dy="2" input="SourceAlpha"/>
      <feGaussianBlur stdDeviation="1" result="blur-11"/>
      <feFlood flood-opacity="0.161"/>
      <feComposite operator="in" in2="blur-11"/>
      <feComposite in="SourceGraphic"/>
    </filter>
    <filter id="Hexagon-9" x="335.19" y="93.616" width="81.613" height="73.361" filterUnits="userSpaceOnUse">
      <feOffset dy="2" input="SourceAlpha"/>
      <feGaussianBlur stdDeviation="1" result="blur-12"/>
      <feFlood flood-opacity="0.161"/>
      <feComposite operator="in" in2="blur-12"/>
      <feComposite in="SourceGraphic"/>
    </filter>
  </defs>
  <g id="Group_6" data-name="Group 6" transform="translate(-144.166 -42.073)">
    <g id="Group_5" data-name="Group 5">
      <g id="Group_3" data-name="Group 3" transform="translate(-14 1)">
        <text id="Variant_Effect_Predictor" data-name="Variant
 Effect 
Predictor" class="cls-1" transform="translate(253 226)"><tspan x="-20.232" y="0">Variant</tspan><tspan x="-19.374" y="15" xml:space="preserve"> Effect </tspan><tspan x="-24.954" y="30">Predictor</tspan></text>
        <g id="Group_1" data-name="Group 1" transform="matrix(1, 0.017, -0.017, 1, -1034.59, -601.749)">
          <g class="cls-30" transform="matrix(1, -0.02, 0.02, 1, 1203.79, 621.91)">
            <path id="Path_104-2" data-name="Path 104" class="cls-2" d="M375.31,515.85,515,481.72a8.05,8.05,0,0,0,5.91-7.57l3.62-100.32c.22-5.29-4.31-9.4-9.22-8.36L372,394a8.06,8.06,0,0,0-6.19,8V508C365.81,513.18,370.46,517.07,375.31,515.85Z" transform="matrix(1, 0.02, -0.02, 1, -195.01, -276.34)"/>
          </g>
          <g class="cls-29" transform="matrix(1, -0.02, 0.02, 1, 1203.79, 621.91)">
            <path id="Path_105-2" data-name="Path 105" class="cls-2" d="M445.26,561.28l144.08-39.72a2.59,2.59,0,0,0,1.88-2.59v-4.63l-69.28-25.67a2.56,2.56,0,0,0-1.84-.26L372.32,512.76v5.66a2.72,2.72,0,0,0,1.07,2.36l52.71,37.16a22.74,22.74,0,0,0,19.16,3.34Z" transform="matrix(1, 0.02, -0.02, 1, -195.01, -276.34)"/>
          </g>
          <g class="cls-28" transform="matrix(1, -0.02, 0.02, 1, 1203.79, 621.91)">
            <path id="Path_106-2" data-name="Path 106" class="cls-3" d="M445.26,556.39l144.08-39.72a2.56,2.56,0,0,0,.57-4.7s-65.53-37-68.21-38.49a8.88,8.88,0,0,0-5.82-.69L376.12,507.71a4.93,4.93,0,0,0-1.71,8.82L426.1,553a22.74,22.74,0,0,0,19.16,3.39Z" transform="matrix(1, 0.02, -0.02, 1, -195.01, -276.34)"/>
          </g>
          <path id="Path_107" data-name="Path 107" class="cls-4" d="M508.3,480,398.09,507.84a1.64,1.64,0,0,0-.54,3l35.4,24.08a3.29,3.29,0,0,0,2.68.46l112.21-29.46a1.64,1.64,0,0,0,.41-3l-38.5-22.64a2,2,0,0,0-1.45-.28ZM535,525l-13.18-7.93a4.93,4.93,0,0,0-3.79-.54l-37.64,9.9a1.64,1.64,0,0,0-.5,2.95l13,8.8a3.29,3.29,0,0,0,2.7.45l39-10.63a1.64,1.64,0,0,0,.41-3Z" transform="translate(1003.987 349.01)"/>
          <path id="Path_108" data-name="Path 108" class="cls-5" d="M513.73,380.2,511.21,463a2,2,0,0,1-1.49,1.85L379,497.25a2,2,0,0,1-2.44-1.92l.5-88a2,2,0,0,1,1.57-1.91L511.4,378.24a2,2,0,0,1,2.33,1.96Z" transform="translate(1003.987 349.01)"/>
          <path id="Path_110" data-name="Path 110" class="cls-6" d="M514.9,380.2,512.36,463a2,2,0,0,1-1.5,1.85l-131.7,32.4a2.026,2.026,0,0,1-1.689-.379,2,2,0,0,1-.769-1.541l.5-88a2,2,0,0,1,1.582-1.91l133.746-27.18a2.025,2.025,0,0,1,1.643.433,1.994,1.994,0,0,1,.724,1.527Z" transform="translate(1004.987 348.993)"/>
          <path id="Path_111" data-name="Path 111" class="cls-7" d="M406.18,428.77l-18.32,3.92a.56.56,0,0,1-.68-.61,1,1,0,0,1,.69-.91l18.33-3.92a.56.56,0,0,1,.68.61,1,1,0,0,1-.7.91Zm9.71-2.08-4.67,1a.56.56,0,0,1-.68-.61,1,1,0,0,1,.7-.91l4.67-1a.56.56,0,0,1,.68.61,1,1,0,0,1-.7.91Zm6.97-1.49-1.74.37a.56.56,0,0,1-.68-.61,1,1,0,0,1,.7-.91l1.74-.37a.56.56,0,0,1,.68.61A1,1,0,0,1,422.86,425.2Zm12.32-2.63-7.5,1.6a.56.56,0,0,1-.68-.62,1,1,0,0,1,.7-.91l7.5-1.64a.56.56,0,0,1,.68.62A1,1,0,0,1,435.18,422.57ZM402.3,434.28l-8,1.72a.56.56,0,0,1-.68-.61,1,1,0,0,1,.69-.9l8-1.72a.56.56,0,0,1,.68.61,1,1,0,0,1-.69.9ZM422.32,430l-15.93,3.4a.56.56,0,0,1-.68-.61,1,1,0,0,1,.7-.91l15.93-3.4a.56.56,0,0,1,.68.61A1,1,0,0,1,422.32,430Zm-13.61,7.58-8,1.71a.56.56,0,0,1-.68-.61,1,1,0,0,1,.69-.9l8-1.71a.56.56,0,0,1,.68.61,1,1,0,0,1-.69.9Zm-2.39,5.18-10.57,2.3a.56.56,0,0,1-.68-.61,1,1,0,0,1,.69-.95l10.57-2.3a.56.56,0,0,1,.67.61,1,1,0,0,1-.68.95Zm2.55,8.76-7.49,1.59a.56.56,0,0,1-.67-.61,1,1,0,0,1,.69-.9l7.49-1.59a.56.56,0,0,1,.67.61A1,1,0,0,1,408.87,451.52Zm-4.2,5.53-4.22.89a.56.56,0,0,1-.67-.61,1,1,0,0,1,.69-.9l4.22-.89a.56.56,0,0,1,.67.61A1,1,0,0,1,404.67,457.05Zm8.77-1.85-5.13,1.09a.56.56,0,0,1-.67-.61,1,1,0,0,1,.69-.9l5.13-1.09a.56.56,0,0,1,.67.61A1,1,0,0,1,413.44,455.2Zm13.29-2.82-9.54,2a.56.56,0,0,1-.67-.61,1,1,0,0,1,.69-.9l9.54-2a.56.56,0,0,1,.67.61A1,1,0,0,1,426.73,452.38Zm-3.97-13.12-12.24,2.6a.56.56,0,0,1-.67-.61,1,1,0,0,1,.69-.9l12.24-2.61a.56.56,0,0,1,.67.61,1,1,0,0,1-.69.91Zm-23.48,9.64-6.65,1.45c-.4.08-.7-.27-.68-.71a1,1,0,0,1,.75-.93l6.58-1.37a.56.56,0,0,1,.65.62.91.91,0,0,1-.65.94Zm12.81-2.71-9,1.9a.56.56,0,0,1-.67-.61,1,1,0,0,1,.69-.9l9-1.9a.56.56,0,0,1,.67.61,1,1,0,0,1-.69.9Zm6.59-10.73-5.87,1.25a.56.56,0,0,1-.68-.61,1,1,0,0,1,.7-.9l5.87-1.25a.56.56,0,0,1,.68.61A1,1,0,0,1,418.68,435.46Zm10.09-6.83-2.33.5a.56.56,0,0,1-.68-.61,1,1,0,0,1,.7-.91l2.33-.5a.56.56,0,0,1,.68.61A1,1,0,0,1,428.77,428.63Zm2.4,4.17-8.09,1.72a.56.56,0,0,1-.67-.61,1,1,0,0,1,.7-.91l8.09-1.73a.56.56,0,0,1,.67.61A1,1,0,0,1,431.17,432.8Z" transform="translate(1002.197 361.043)"/>
          <path id="Path_117" data-name="Path 117" class="cls-8" d="M511.35,463l2.11-69.17-3,.64-1.93,70.71,1.35-.33a2,2,0,0,0,1.47-1.85Z" transform="translate(1003.987 349.01)"/>
          <path id="Path_118" data-name="Path 118" class="cls-9" d="M510.68,403v1.37a.36.36,0,0,0,.46.35l1.32-.38a.36.36,0,0,0,.26-.33v-1.35a.36.36,0,0,0-.45-.35l-1.32.36a.36.36,0,0,0-.27.33Z" transform="translate(1003.987 349.01)"/>
          <path id="Path_119" data-name="Path 119" class="cls-10" d="M511.51,378.21,378.74,405.573a2.01,2.01,0,0,0-1.57,1.923l.263,15.184L513.45,393.915l.41-13.7a2.019,2.019,0,0,0-.707-1.558,1.991,1.991,0,0,0-1.643-.446Z" transform="translate(1003.987 349.01)"/>
          <path id="Path_122" data-name="Path 122" class="cls-11" d="M387.91,420.23l1.73-6.61a1.84,1.84,0,0,1,1.34-1.3l4-.83a1.06,1.06,0,0,1,1.31.74l1.58,5.87" transform="translate(1003.987 349.01)"/>
          <path id="Path_123" data-name="Path 123" class="cls-12" d="M393.05,416.55l-.27.06a1,1,0,0,1-1.23-1,1.63,1.63,0,0,1,1.25-1.5l.27-.06a1,1,0,0,1,1.22,1,1.63,1.63,0,0,1-1.24,1.5Z" transform="translate(1003.987 349.01)"/>
          <path id="Path_125" data-name="Path 125" class="cls-11" d="M445.12,406.74l-4.74,1a.92.92,0,0,1-1.14-.66l-.63-2.44a1.17,1.17,0,0,1,.88-1.34l4.74-1a.91.91,0,0,1,1.13.67l.62,2.43a1.17,1.17,0,0,1-.86,1.34Z" transform="translate(1003.987 349.01)"/>
          <path id="Path_128" data-name="Path 128" class="cls-13" d="M396,418.47l1.71-6.57a1.82,1.82,0,0,1,1.33-1.29l35.64-7.51a1,1,0,0,1,1.24.73l1.48,5.72" transform="translate(1003.987 349.01)"/>
          <path id="Path_129" data-name="Path 129" class="cls-11" d="M437.24,409.89l-1.54-5.94a.8.8,0,0,0-1-.58l-35.64,7.52a1.46,1.46,0,0,0-1.06,1l-1.69,6.5-.57.12,1.73-6.65a2.19,2.19,0,0,1,1.6-1.55l35.64-7.51a1.2,1.2,0,0,1,1.49.87l1.57,6.07Z" transform="translate(1003.987 349.01)"/>
          <path id="Path_130" data-name="Path 130" class="cls-12" d="M400.76,414.94l-.27.06a1,1,0,0,1-1.21-1,1.62,1.62,0,0,1,1.24-1.49l.27-.06a1,1,0,0,1,1.21,1,1.62,1.62,0,0,1-1.24,1.49Zm29.41-7.36-25.89,5.52a.21.21,0,0,1-.27-.21.36.36,0,0,1,.27-.33l25.9-5.56a.2.2,0,0,1,.26.21.35.35,0,0,1-.27.37Z" transform="translate(1003.987 349.01)"/>
        </g>
        <g class="cls-27" transform="matrix(1, 0, 0, 1, 158.17, 41.07)">
          <path id="Hexagon-10" data-name="Hexagon" class="cls-14" d="M87.637,39.637,66.478,77.044H24.159L3,39.637,24.159,2.231H66.478Z" transform="matrix(-0.02, 1, -1, -0.02, 134.51, 152.07)"/>
        </g>
        <text id="_1000_Genomes" data-name="1000
Genomes" class="cls-1" transform="translate(273 131)"><tspan x="-12.708" y="0">1000</tspan><tspan x="-26.166" y="15">Genomes</tspan></text>
        <g class="cls-26" transform="matrix(1, 0, 0, 1, 158.17, 41.07)">
          <path id="Hexagon-11" data-name="Hexagon" class="cls-14" d="M76.488,34.658,58.116,67.085H21.372L3,34.658,21.372,2.231H58.116Z" transform="matrix(-0.02, 1, -1, -0.02, 149.19, 52.97)"/>
        </g>
        <text id="Human_Phenotype_Ontology" data-name="Human
 Phenotype
Ontology" class="cls-1" transform="translate(368 77)"><tspan x="-20.286" y="0">Human</tspan><tspan x="-31.386" y="15" xml:space="preserve"> Phenotype</tspan><tspan x="-25.656" y="30">Ontology</tspan></text>
        <g class="cls-25" transform="matrix(1, 0, 0, 1, 158.17, 41.07)">
          <path id="Hexagon-12" data-name="Hexagon" class="cls-14" d="M91.635,43.1,69.476,83.978H25.159L3,43.1,25.159,2.231H69.476Z" transform="matrix(-0.02, 1, -1, -0.02, 253.65, 0.04)"/>
        </g>
        <g class="cls-24" transform="matrix(1, 0, 0, 1, 158.17, 41.07)">
          <path id="Hexagon-13" data-name="Hexagon" class="cls-14" d="M55.627,27.58,42.47,52.928H16.157L3,27.58,16.157,2.231H42.47Z" transform="matrix(-0.02, 1, -1, -0.02, 314.04, 40.73)"/>
        </g>
        <text id="Tabix" class="cls-1" transform="translate(444 116)"><tspan x="-14.436" y="0">Tabix</tspan></text>
        <g class="cls-23" transform="matrix(1, 0, 0, 1, 158.17, 41.07)">
          <path id="Hexagon-14" data-name="Hexagon" class="cls-14" d="M67.978,38.967,51.733,75.7H19.244L3,38.967,19.244,2.231H51.733Z" transform="matrix(-0.02, 1, -1, -0.02, 440.58, 161.49)"/>
        </g>
        <text id="Phenolyzer" class="cls-1" transform="translate(560 242)"><tspan x="-30.516" y="0">Phenolyzer</tspan></text>
        <g class="cls-22" transform="matrix(1, 0, 0, 1, 158.17, 41.07)">
          <path id="Hexagon-15" data-name="Hexagon" class="cls-15" d="M55.627,27.58,42.47,52.928H16.157L3,27.58,16.157,2.231H42.47Z" transform="matrix(-0.02, 1, -1, -0.02, 160.04, 241.73)"/>
        </g>
        <text id="igv.js" class="cls-1" transform="translate(290 317)"><tspan x="-13.524" y="0">igv.js</tspan></text>
        <g class="cls-21" transform="matrix(1, 0, 0, 1, 158.17, 41.07)">
          <path id="Hexagon-16" data-name="Hexagon" class="cls-14" d="M58.576,28.9,44.682,55.572H16.894L3,28.9,16.894,2.231H44.682Z" transform="matrix(-0.02, 1, -1, -0.02, 60.1, 114.75)"/>
        </g>
        <text id="RefSeq" class="cls-1" transform="translate(188 190)"><tspan x="-19.764" y="0">RefSeq</tspan></text>
        <g class="cls-20" transform="matrix(1, 0, 0, 1, 158.17, 41.07)">
          <path id="Hexagon-17" data-name="Hexagon" class="cls-14" d="M67.978,38.967,51.733,75.7H19.244L3,38.967,19.244,2.231H51.733Z" transform="matrix(-0.02, 1, -1, -0.02, 403.58, 11.49)"/>
        </g>
        <text id="Samtools" class="cls-1" transform="translate(523 92)"><tspan x="-25.794" y="0">Samtools</tspan></text>
        <g class="cls-19" transform="matrix(1, 0, 0, 1, 158.17, 41.07)">
          <path id="Hexagon-18" data-name="Hexagon" class="cls-14" d="M67.978,38.967,51.733,75.7H19.244L3,38.967,19.244,2.231H51.733Z" transform="matrix(-0.02, 1, -1, -0.02, 415.58, 93.49)"/>
        </g>
        <text id="Gencode" class="cls-1" transform="translate(535 174)"><tspan x="-24.576" y="0">Gencode</tspan></text>
      </g>
      <rect id="Rectangle_1" data-name="Rectangle 1" class="cls-7" width="13" height="1.4" rx="0.7" transform="matrix(0.985, -0.174, 0.174, 0.985, 354.012, 229.136)"/>
      <rect id="Rectangle_2" data-name="Rectangle 2" class="cls-7" width="13" height="1.4" rx="0.7" transform="matrix(0.985, -0.174, 0.174, 0.985, 351.012, 234.136)"/>
      <rect id="Rectangle_3" data-name="Rectangle 3" class="cls-7" width="13" height="1.4" rx="0.7" transform="matrix(0.985, -0.174, 0.174, 0.985, 365.012, 222.136)"/>
      <rect id="Rectangle_4" data-name="Rectangle 4" class="cls-7" width="13" height="1.4" rx="0.7" transform="matrix(0.985, -0.174, 0.174, 0.985, 335.012, 246.136)"/>
      <rect id="Rectangle_5" data-name="Rectangle 5" class="cls-7" width="11" height="1.4" rx="0.7" transform="matrix(0.985, -0.174, 0.174, 0.985, 351.012, 243.136)"/>
      <rect id="Rectangle_6" data-name="Rectangle 6" class="cls-7" width="13" height="1.4" rx="0.7" transform="matrix(0.985, -0.174, 0.174, 0.985, 365.012, 240.136)"/>
    </g>
    <circle id="Ellipse_13" data-name="Ellipse 13" class="cls-16" cx="1.5" cy="1.5" r="1.5" transform="matrix(0.996, 0.087, -0.087, 0.996, 322.082, 180.13)"/>
    <circle id="Ellipse_14" data-name="Ellipse 14" class="cls-17" cx="1.5" cy="1.5" r="1.5" transform="matrix(0.996, 0.087, -0.087, 0.996, 329.229, 178.748)"/>
    <circle id="Ellipse_15" data-name="Ellipse 15" class="cls-18" cx="1.5" cy="1.5" r="1.5" transform="matrix(0.996, 0.087, -0.087, 0.996, 337.373, 177.453)"/>
  </g>
</svg>
