<svg xmlns="http://www.w3.org/2000/svg" viewBox="0 0 25 25">
  <defs>
    <style>
      .cls-1 {
        fill: #0f0c0d;
        fill-rule: evenodd;
      }
    </style>
  </defs>
  <g id="Group_11" data-name="Group 11" transform="translate(-136.32 -107.44)">
    <path id="Path_1" data-name="Path 1" class="cls-1" d="M148.819,107.44a12.662,12.662,0,0,0-12.5,12.818,12.794,12.794,0,0,0,8.548,12.161c.625.117.853-.278.853-.618,0-.3-.011-1.11-.017-2.18-3.477.775-4.211-1.718-4.211-1.718a3.373,3.373,0,0,0-1.388-1.875c-1.135-.8.086-.779.086-.779a2.632,2.632,0,0,1,1.915,1.32,2.624,2.624,0,0,0,3.638,1.065,2.766,2.766,0,0,1,.793-1.714c-2.776-.323-5.694-1.423-5.694-6.334a5.025,5.025,0,0,1,1.287-3.439,4.713,4.713,0,0,1,.123-3.392s1.049-.345,3.437,1.314a11.572,11.572,0,0,1,6.259,0c2.387-1.659,3.434-1.314,3.434-1.314a4.714,4.714,0,0,1,.125,3.392,5.016,5.016,0,0,1,1.285,3.439c0,4.924-2.923,6.007-5.708,6.324a3.1,3.1,0,0,1,.849,2.374c0,1.714-.015,3.1-.015,3.516,0,.342.226.741.859.616a12.8,12.8,0,0,0,8.542-12.159A12.662,12.662,0,0,0,148.819,107.44Z"/>
    <path id="Path_85" data-name="Path 85" class="cls-1" d="M148.819,107.44a12.662,12.662,0,0,0-12.5,12.818,12.794,12.794,0,0,0,8.548,12.161c.625.117.853-.278.853-.618,0-.3-.011-1.11-.017-2.18-3.477.775-4.211-1.718-4.211-1.718a3.373,3.373,0,0,0-1.388-1.875c-1.135-.8.086-.779.086-.779a2.632,2.632,0,0,1,1.915,1.32,2.624,2.624,0,0,0,3.638,1.065,2.766,2.766,0,0,1,.793-1.714c-2.776-.323-5.694-1.423-5.694-6.334a5.025,5.025,0,0,1,1.287-3.439,4.713,4.713,0,0,1,.123-3.392s1.049-.345,3.437,1.314a11.572,11.572,0,0,1,6.259,0c2.387-1.659,3.434-1.314,3.434-1.314a4.714,4.714,0,0,1,.125,3.392,5.016,5.016,0,0,1,1.285,3.439c0,4.924-2.923,6.007-5.708,6.324a3.1,3.1,0,0,1,.849,2.374c0,1.714-.015,3.1-.015,3.516,0,.342.226.741.859.616a12.8,12.8,0,0,0,8.542-12.159A12.662,12.662,0,0,0,148.819,107.44Z"/>
  </g>
</svg>
